<svg width="45" height="45" viewBox="0 0 45 45" fill="none" xmlns="http://www.w3.org/2000/svg">
<path d="M5.55136 14.8036H17.5793C20.1342 14.8036 22.2054 12.7324 22.2054 10.1775C22.2054 7.62252 20.1342 5.55133 17.5793 5.55133C15.0243 5.55133 12.9532 7.62252 12.9532 10.1775V10.8383" stroke="#1C274C" stroke-width="1.5" stroke-linecap="round"/>
<path d="M7.40179 25.9063H34.2333C37.8102 25.9063 40.7099 28.806 40.7099 32.3829C40.7099 35.9598 37.8102 38.8595 34.2333 38.8595C30.6564 38.8595 27.7567 35.9598 27.7567 32.3829V31.4577" stroke="#1C274C" stroke-width="1.5" stroke-linecap="round"/>
<path d="M3.7009 20.3549H34.2333C37.8102 20.3549 40.7099 17.4553 40.7099 13.8784C40.7099 10.3014 37.8102 7.40179 34.2333 7.40179C30.6564 7.40179 27.7567 10.3014 27.7567 13.8784V14.8036" stroke="#1C274C" stroke-width="1.5" stroke-linecap="round"/>
</svg>
